<mxfile host="app.diagrams.net" modified="2021-03-20T09:41:09.120Z" agent="5.0 (Windows NT 10.0; Win64; x64) AppleWebKit/537.36 (KHTML, like Gecko) Chrome/88.0.4324.182 Safari/537.36" etag="SylooztDHNkbSsNDLbKO" version="14.4.9" type="github">
  <diagram id="fwMcvY6XdAKcD49i15a-" name="Page-1">
    <mxGraphModel dx="1052" dy="554" grid="1" gridSize="10" guides="1" tooltips="1" connect="1" arrows="1" fold="1" page="1" pageScale="1" pageWidth="827" pageHeight="1169" math="0" shadow="0">
      <root>
        <mxCell id="0" />
        <mxCell id="1" parent="0" />
        <mxCell id="A2JY4CL3hP6H36Dgf9bo-6" value="" style="edgeStyle=orthogonalEdgeStyle;rounded=0;orthogonalLoop=1;jettySize=auto;html=1;" edge="1" parent="1" source="A2JY4CL3hP6H36Dgf9bo-1" target="A2JY4CL3hP6H36Dgf9bo-5">
          <mxGeometry relative="1" as="geometry" />
        </mxCell>
        <mxCell id="A2JY4CL3hP6H36Dgf9bo-40" value="" style="edgeStyle=orthogonalEdgeStyle;rounded=0;orthogonalLoop=1;jettySize=auto;html=1;" edge="1" parent="1" source="A2JY4CL3hP6H36Dgf9bo-1" target="A2JY4CL3hP6H36Dgf9bo-39">
          <mxGeometry relative="1" as="geometry" />
        </mxCell>
        <mxCell id="A2JY4CL3hP6H36Dgf9bo-1" value="1.Open" style="rounded=0;whiteSpace=wrap;html=1;" vertex="1" parent="1">
          <mxGeometry x="160" y="60" width="120" height="60" as="geometry" />
        </mxCell>
        <mxCell id="A2JY4CL3hP6H36Dgf9bo-10" value="" style="edgeStyle=orthogonalEdgeStyle;rounded=0;orthogonalLoop=1;jettySize=auto;html=1;" edge="1" parent="1" source="A2JY4CL3hP6H36Dgf9bo-5" target="A2JY4CL3hP6H36Dgf9bo-9">
          <mxGeometry relative="1" as="geometry" />
        </mxCell>
        <mxCell id="A2JY4CL3hP6H36Dgf9bo-12" value="" style="edgeStyle=orthogonalEdgeStyle;rounded=0;orthogonalLoop=1;jettySize=auto;html=1;" edge="1" parent="1" source="A2JY4CL3hP6H36Dgf9bo-5" target="A2JY4CL3hP6H36Dgf9bo-11">
          <mxGeometry relative="1" as="geometry" />
        </mxCell>
        <mxCell id="A2JY4CL3hP6H36Dgf9bo-5" value="配置" style="rounded=0;whiteSpace=wrap;html=1;" vertex="1" parent="1">
          <mxGeometry x="320" y="60" width="120" height="60" as="geometry" />
        </mxCell>
        <mxCell id="A2JY4CL3hP6H36Dgf9bo-9" value="&lt;div&gt;for _, opt := range opts {&lt;/div&gt;&lt;div&gt;&amp;nbsp; &amp;nbsp;if opt != nil {&lt;/div&gt;&lt;div&gt;&amp;nbsp; &amp;nbsp; &amp;nbsp; if err := opt.Apply(config); err != nil {&lt;/div&gt;&lt;div&gt;&amp;nbsp; &amp;nbsp; &amp;nbsp; &amp;nbsp; &amp;nbsp;return nil, err&lt;/div&gt;&lt;div&gt;&amp;nbsp; &amp;nbsp; &amp;nbsp; }&lt;/div&gt;&lt;div&gt;&amp;nbsp; &amp;nbsp; &amp;nbsp; defer func() {&lt;/div&gt;&lt;div&gt;&amp;nbsp; &amp;nbsp; &amp;nbsp; &amp;nbsp; &amp;nbsp;opt.AfterInitialize(db)&lt;/div&gt;&lt;div&gt;&amp;nbsp; &amp;nbsp; &amp;nbsp; }()&lt;/div&gt;&lt;div&gt;&amp;nbsp; &amp;nbsp;}&lt;/div&gt;&lt;div&gt;}&lt;/div&gt;" style="shape=note;whiteSpace=wrap;html=1;backgroundOutline=1;darkOpacity=0.05;rounded=0;align=left;" vertex="1" parent="1">
          <mxGeometry x="480" y="5" width="223" height="170" as="geometry" />
        </mxCell>
        <mxCell id="A2JY4CL3hP6H36Dgf9bo-14" value="" style="edgeStyle=orthogonalEdgeStyle;rounded=0;orthogonalLoop=1;jettySize=auto;html=1;" edge="1" parent="1" source="A2JY4CL3hP6H36Dgf9bo-11" target="A2JY4CL3hP6H36Dgf9bo-13">
          <mxGeometry relative="1" as="geometry" />
        </mxCell>
        <mxCell id="A2JY4CL3hP6H36Dgf9bo-16" value="" style="edgeStyle=orthogonalEdgeStyle;rounded=0;orthogonalLoop=1;jettySize=auto;html=1;" edge="1" parent="1" source="A2JY4CL3hP6H36Dgf9bo-11" target="A2JY4CL3hP6H36Dgf9bo-15">
          <mxGeometry relative="1" as="geometry" />
        </mxCell>
        <mxCell id="A2JY4CL3hP6H36Dgf9bo-11" value="初始化callback" style="whiteSpace=wrap;html=1;rounded=0;" vertex="1" parent="1">
          <mxGeometry x="320" y="245" width="120" height="60" as="geometry" />
        </mxCell>
        <mxCell id="A2JY4CL3hP6H36Dgf9bo-13" value="&lt;div&gt;func initializeCallbacks(db *DB) *callbacks {&lt;/div&gt;&lt;div&gt;&lt;span&gt;	&lt;/span&gt;return &amp;amp;callbacks{&lt;/div&gt;&lt;div&gt;&lt;span&gt;		&lt;/span&gt;processors: map[string]*processor{&lt;/div&gt;&lt;div&gt;&lt;span&gt;			&lt;/span&gt;&quot;create&quot;: {db: db},&lt;/div&gt;&lt;div&gt;&lt;span&gt;			&lt;/span&gt;&quot;query&quot;:&amp;nbsp; {db: db},&lt;/div&gt;&lt;div&gt;&lt;span&gt;			&lt;/span&gt;&quot;update&quot;: {db: db},&lt;/div&gt;&lt;div&gt;&lt;span&gt;			&lt;/span&gt;&quot;delete&quot;: {db: db},&lt;/div&gt;&lt;div&gt;&lt;span&gt;			&lt;/span&gt;&quot;row&quot;:&amp;nbsp; &amp;nbsp; {db: db},&lt;/div&gt;&lt;div&gt;&lt;span&gt;			&lt;/span&gt;&quot;raw&quot;:&amp;nbsp; &amp;nbsp; {db: db},&lt;/div&gt;&lt;div&gt;&lt;span&gt;		&lt;/span&gt;},&lt;/div&gt;&lt;div&gt;&lt;span&gt;	&lt;/span&gt;}&lt;/div&gt;&lt;div&gt;}&lt;/div&gt;" style="shape=note;whiteSpace=wrap;html=1;backgroundOutline=1;darkOpacity=0.05;rounded=0;align=left;" vertex="1" parent="1">
          <mxGeometry x="540" y="180" width="280" height="190" as="geometry" />
        </mxCell>
        <mxCell id="A2JY4CL3hP6H36Dgf9bo-18" value="" style="edgeStyle=orthogonalEdgeStyle;rounded=0;orthogonalLoop=1;jettySize=auto;html=1;" edge="1" parent="1" source="A2JY4CL3hP6H36Dgf9bo-15" target="A2JY4CL3hP6H36Dgf9bo-17">
          <mxGeometry relative="1" as="geometry" />
        </mxCell>
        <mxCell id="A2JY4CL3hP6H36Dgf9bo-22" value="" style="edgeStyle=orthogonalEdgeStyle;rounded=0;orthogonalLoop=1;jettySize=auto;html=1;" edge="1" parent="1" source="A2JY4CL3hP6H36Dgf9bo-15" target="A2JY4CL3hP6H36Dgf9bo-21">
          <mxGeometry relative="1" as="geometry" />
        </mxCell>
        <mxCell id="A2JY4CL3hP6H36Dgf9bo-15" value="Dialector初始化" style="whiteSpace=wrap;html=1;rounded=0;" vertex="1" parent="1">
          <mxGeometry x="320" y="637.5" width="120" height="60" as="geometry" />
        </mxCell>
        <mxCell id="A2JY4CL3hP6H36Dgf9bo-20" value="" style="edgeStyle=orthogonalEdgeStyle;rounded=0;orthogonalLoop=1;jettySize=auto;html=1;" edge="1" parent="1" source="A2JY4CL3hP6H36Dgf9bo-17" target="A2JY4CL3hP6H36Dgf9bo-19">
          <mxGeometry relative="1" as="geometry" />
        </mxCell>
        <mxCell id="A2JY4CL3hP6H36Dgf9bo-17" value="注册callback" style="whiteSpace=wrap;html=1;rounded=0;" vertex="1" parent="1">
          <mxGeometry x="520" y="637.5" width="120" height="60" as="geometry" />
        </mxCell>
        <mxCell id="A2JY4CL3hP6H36Dgf9bo-19" value="&lt;div&gt;func RegisterDefaultCallbacks(db *gorm.DB, config *Config) {&lt;/div&gt;&lt;div&gt;&lt;span&gt;	&lt;/span&gt;enableTransaction := func(db *gorm.DB) bool {&lt;/div&gt;&lt;div&gt;&lt;span&gt;		&lt;/span&gt;return !db.SkipDefaultTransaction&lt;/div&gt;&lt;div&gt;&lt;span&gt;	&lt;/span&gt;}&lt;/div&gt;&lt;div&gt;&lt;br&gt;&lt;/div&gt;&lt;div&gt;&lt;span&gt;	&lt;/span&gt;createCallback := db.Callback().Create()&lt;/div&gt;&lt;div&gt;&lt;span&gt;	&lt;/span&gt;createCallback.Match(enableTransaction).Register(&quot;gorm:begin_transaction&quot;, BeginTransaction)&lt;/div&gt;&lt;div&gt;&lt;span&gt;	&lt;/span&gt;createCallback.Register(&quot;gorm:before_create&quot;, BeforeCreate)&lt;/div&gt;&lt;div&gt;&lt;span&gt;	&lt;/span&gt;createCallback.Register(&quot;gorm:save_before_associations&quot;, SaveBeforeAssociations(true))&lt;/div&gt;&lt;div&gt;&lt;span&gt;	&lt;/span&gt;createCallback.Register(&quot;gorm:create&quot;, Create(config))&lt;/div&gt;&lt;div&gt;&lt;span&gt;	&lt;/span&gt;createCallback.Register(&quot;gorm:save_after_associations&quot;, SaveAfterAssociations(true))&lt;/div&gt;&lt;div&gt;&lt;span&gt;	&lt;/span&gt;createCallback.Register(&quot;gorm:after_create&quot;, AfterCreate)&lt;/div&gt;&lt;div&gt;&lt;span&gt;	&lt;/span&gt;createCallback.Match(enableTransaction).Register(&quot;gorm:commit_or_rollback_transaction&quot;, CommitOrRollbackTransaction)&lt;/div&gt;&lt;div&gt;&lt;br&gt;&lt;/div&gt;&lt;div&gt;&lt;span&gt;	&lt;/span&gt;queryCallback := db.Callback().Query()&lt;/div&gt;&lt;div&gt;&lt;span&gt;	&lt;/span&gt;queryCallback.Register(&quot;gorm:query&quot;, Query)&lt;/div&gt;&lt;div&gt;&lt;span&gt;	&lt;/span&gt;queryCallback.Register(&quot;gorm:preload&quot;, Preload)&lt;/div&gt;&lt;div&gt;&lt;span&gt;	&lt;/span&gt;queryCallback.Register(&quot;gorm:after_query&quot;, AfterQuery)&lt;/div&gt;&lt;div&gt;&lt;br&gt;&lt;/div&gt;&lt;div&gt;&lt;span&gt;	&lt;/span&gt;deleteCallback := db.Callback().Delete()&lt;/div&gt;&lt;div&gt;&lt;span&gt;	&lt;/span&gt;deleteCallback.Match(enableTransaction).Register(&quot;gorm:begin_transaction&quot;, BeginTransaction)&lt;/div&gt;&lt;div&gt;&lt;span&gt;	&lt;/span&gt;deleteCallback.Register(&quot;gorm:before_delete&quot;, BeforeDelete)&lt;/div&gt;&lt;div&gt;&lt;span&gt;	&lt;/span&gt;deleteCallback.Register(&quot;gorm:delete_before_associations&quot;, DeleteBeforeAssociations)&lt;/div&gt;&lt;div&gt;&lt;span&gt;	&lt;/span&gt;deleteCallback.Register(&quot;gorm:delete&quot;, Delete)&lt;/div&gt;&lt;div&gt;&lt;span&gt;	&lt;/span&gt;deleteCallback.Register(&quot;gorm:after_delete&quot;, AfterDelete)&lt;/div&gt;&lt;div&gt;&lt;span&gt;	&lt;/span&gt;deleteCallback.Match(enableTransaction).Register(&quot;gorm:commit_or_rollback_transaction&quot;, CommitOrRollbackTransaction)&lt;/div&gt;&lt;div&gt;&lt;br&gt;&lt;/div&gt;&lt;div&gt;&lt;span&gt;	&lt;/span&gt;updateCallback := db.Callback().Update()&lt;/div&gt;&lt;div&gt;&lt;span&gt;	&lt;/span&gt;updateCallback.Match(enableTransaction).Register(&quot;gorm:begin_transaction&quot;, BeginTransaction)&lt;/div&gt;&lt;div&gt;&lt;span&gt;	&lt;/span&gt;updateCallback.Register(&quot;gorm:setup_reflect_value&quot;, SetupUpdateReflectValue)&lt;/div&gt;&lt;div&gt;&lt;span&gt;	&lt;/span&gt;updateCallback.Register(&quot;gorm:before_update&quot;, BeforeUpdate)&lt;/div&gt;&lt;div&gt;&lt;span&gt;	&lt;/span&gt;updateCallback.Register(&quot;gorm:save_before_associations&quot;, SaveBeforeAssociations(false))&lt;/div&gt;&lt;div&gt;&lt;span&gt;	&lt;/span&gt;updateCallback.Register(&quot;gorm:update&quot;, Update)&lt;/div&gt;&lt;div&gt;&lt;span&gt;	&lt;/span&gt;updateCallback.Register(&quot;gorm:save_after_associations&quot;, SaveAfterAssociations(false))&lt;/div&gt;&lt;div&gt;&lt;span&gt;	&lt;/span&gt;updateCallback.Register(&quot;gorm:after_update&quot;, AfterUpdate)&lt;/div&gt;&lt;div&gt;&lt;span&gt;	&lt;/span&gt;updateCallback.Match(enableTransaction).Register(&quot;gorm:commit_or_rollback_transaction&quot;, CommitOrRollbackTransaction)&lt;/div&gt;&lt;div&gt;&lt;br&gt;&lt;/div&gt;&lt;div&gt;&lt;span&gt;	&lt;/span&gt;db.Callback().Row().Register(&quot;gorm:row&quot;, RowQuery)&lt;/div&gt;&lt;div&gt;&lt;span&gt;	&lt;/span&gt;db.Callback().Raw().Register(&quot;gorm:raw&quot;, RawExec)&lt;/div&gt;&lt;div&gt;}&lt;/div&gt;" style="shape=note;whiteSpace=wrap;html=1;backgroundOutline=1;darkOpacity=0.05;rounded=0;align=left;" vertex="1" parent="1">
          <mxGeometry x="740" y="365" width="560" height="605" as="geometry" />
        </mxCell>
        <mxCell id="A2JY4CL3hP6H36Dgf9bo-24" value="" style="edgeStyle=orthogonalEdgeStyle;rounded=0;orthogonalLoop=1;jettySize=auto;html=1;" edge="1" parent="1" source="A2JY4CL3hP6H36Dgf9bo-21" target="A2JY4CL3hP6H36Dgf9bo-23">
          <mxGeometry relative="1" as="geometry" />
        </mxCell>
        <mxCell id="A2JY4CL3hP6H36Dgf9bo-26" value="" style="edgeStyle=orthogonalEdgeStyle;rounded=0;orthogonalLoop=1;jettySize=auto;html=1;" edge="1" parent="1" source="A2JY4CL3hP6H36Dgf9bo-21" target="A2JY4CL3hP6H36Dgf9bo-25">
          <mxGeometry relative="1" as="geometry" />
        </mxCell>
        <mxCell id="A2JY4CL3hP6H36Dgf9bo-21" value="&lt;span&gt;Dialector创建连接&lt;/span&gt;" style="whiteSpace=wrap;html=1;rounded=0;" vertex="1" parent="1">
          <mxGeometry x="320" y="813.75" width="120" height="60" as="geometry" />
        </mxCell>
        <mxCell id="A2JY4CL3hP6H36Dgf9bo-23" value="&lt;div&gt;if dialector.Conn != nil {&lt;/div&gt;&lt;div&gt;&lt;span&gt;	&lt;/span&gt;db.ConnPool = dialector.Conn&lt;/div&gt;&lt;div&gt;} else {&lt;/div&gt;&lt;div&gt;&lt;span&gt;	&lt;/span&gt;db.ConnPool, err = sql.Open(dialector.DriverName, dialector.DSN)&lt;/div&gt;&lt;div&gt;&lt;span&gt;	&lt;/span&gt;if err != nil {&lt;/div&gt;&lt;div&gt;&lt;span&gt;		&lt;/span&gt;return err&lt;/div&gt;&lt;div&gt;&lt;span&gt;	&lt;/span&gt;}&lt;/div&gt;&lt;div&gt;}&lt;/div&gt;" style="shape=note;whiteSpace=wrap;html=1;backgroundOutline=1;darkOpacity=0.05;rounded=0;align=left;" vertex="1" parent="1">
          <mxGeometry x="540" y="757.5" width="180" height="172.5" as="geometry" />
        </mxCell>
        <mxCell id="A2JY4CL3hP6H36Dgf9bo-30" value="" style="edgeStyle=orthogonalEdgeStyle;rounded=0;orthogonalLoop=1;jettySize=auto;html=1;" edge="1" parent="1" source="A2JY4CL3hP6H36Dgf9bo-25" target="A2JY4CL3hP6H36Dgf9bo-29">
          <mxGeometry relative="1" as="geometry" />
        </mxCell>
        <mxCell id="A2JY4CL3hP6H36Dgf9bo-32" value="" style="edgeStyle=orthogonalEdgeStyle;rounded=0;orthogonalLoop=1;jettySize=auto;html=1;" edge="1" parent="1" source="A2JY4CL3hP6H36Dgf9bo-25" target="A2JY4CL3hP6H36Dgf9bo-31">
          <mxGeometry relative="1" as="geometry" />
        </mxCell>
        <mxCell id="A2JY4CL3hP6H36Dgf9bo-25" value="特殊版本处理" style="whiteSpace=wrap;html=1;rounded=0;" vertex="1" parent="1">
          <mxGeometry x="320" y="1150" width="120" height="60" as="geometry" />
        </mxCell>
        <mxCell id="A2JY4CL3hP6H36Dgf9bo-29" value="&lt;div&gt;if !dialector.Config.SkipInitializeWithVersion {&lt;/div&gt;&lt;div&gt;&lt;span&gt;		&lt;/span&gt;var version string&lt;/div&gt;&lt;div&gt;&lt;span&gt;		&lt;/span&gt;err = db.ConnPool.QueryRowContext(ctx, &quot;SELECT VERSION()&quot;).Scan(&amp;amp;version)&lt;/div&gt;&lt;div&gt;&lt;span&gt;		&lt;/span&gt;if err != nil {&lt;/div&gt;&lt;div&gt;&lt;span&gt;			&lt;/span&gt;return err&lt;/div&gt;&lt;div&gt;&lt;span&gt;		&lt;/span&gt;}&lt;/div&gt;&lt;div&gt;&lt;br&gt;&lt;/div&gt;&lt;div&gt;&lt;span&gt;		&lt;/span&gt;if strings.Contains(version, &quot;MariaDB&quot;) {&lt;/div&gt;&lt;div&gt;&lt;span&gt;			&lt;/span&gt;dialector.Config.DontSupportRenameIndex = true&lt;/div&gt;&lt;div&gt;&lt;span&gt;			&lt;/span&gt;dialector.Config.DontSupportRenameColumn = true&lt;/div&gt;&lt;div&gt;&lt;span&gt;			&lt;/span&gt;dialector.Config.DontSupportForShareClause = true&lt;/div&gt;&lt;div&gt;&lt;span&gt;		&lt;/span&gt;} else if strings.HasPrefix(version, &quot;5.6.&quot;) {&lt;/div&gt;&lt;div&gt;&lt;span&gt;			&lt;/span&gt;dialector.Config.DontSupportRenameIndex = true&lt;/div&gt;&lt;div&gt;&lt;span&gt;			&lt;/span&gt;dialector.Config.DontSupportRenameColumn = true&lt;/div&gt;&lt;div&gt;&lt;span&gt;			&lt;/span&gt;dialector.Config.DontSupportForShareClause = true&lt;/div&gt;&lt;div&gt;&lt;span&gt;		&lt;/span&gt;} else if strings.HasPrefix(version, &quot;5.7.&quot;) {&lt;/div&gt;&lt;div&gt;&lt;span&gt;			&lt;/span&gt;dialector.Config.DontSupportRenameColumn = true&lt;/div&gt;&lt;div&gt;&lt;span&gt;			&lt;/span&gt;dialector.Config.DontSupportForShareClause = true&lt;/div&gt;&lt;div&gt;&lt;span&gt;		&lt;/span&gt;} else if strings.HasPrefix(version, &quot;5.&quot;) {&lt;/div&gt;&lt;div&gt;&lt;span&gt;			&lt;/span&gt;dialector.Config.DisableDatetimePrecision = true&lt;/div&gt;&lt;div&gt;&lt;span&gt;			&lt;/span&gt;dialector.Config.DontSupportRenameIndex = true&lt;/div&gt;&lt;div&gt;&lt;span&gt;			&lt;/span&gt;dialector.Config.DontSupportRenameColumn = true&lt;/div&gt;&lt;div&gt;&lt;span&gt;			&lt;/span&gt;dialector.Config.DontSupportForShareClause = true&lt;/div&gt;&lt;div&gt;&lt;span&gt;		&lt;/span&gt;}&lt;/div&gt;&lt;div&gt;&lt;span&gt;	&lt;/span&gt;}&lt;/div&gt;" style="shape=note;whiteSpace=wrap;html=1;backgroundOutline=1;darkOpacity=0.05;rounded=0;align=left;" vertex="1" parent="1">
          <mxGeometry x="540" y="980" width="330" height="400" as="geometry" />
        </mxCell>
        <mxCell id="A2JY4CL3hP6H36Dgf9bo-34" value="" style="edgeStyle=orthogonalEdgeStyle;rounded=0;orthogonalLoop=1;jettySize=auto;html=1;" edge="1" parent="1" source="A2JY4CL3hP6H36Dgf9bo-31" target="A2JY4CL3hP6H36Dgf9bo-33">
          <mxGeometry relative="1" as="geometry" />
        </mxCell>
        <mxCell id="A2JY4CL3hP6H36Dgf9bo-36" value="" style="edgeStyle=orthogonalEdgeStyle;rounded=0;orthogonalLoop=1;jettySize=auto;html=1;" edge="1" parent="1" source="A2JY4CL3hP6H36Dgf9bo-31" target="A2JY4CL3hP6H36Dgf9bo-35">
          <mxGeometry relative="1" as="geometry" />
        </mxCell>
        <mxCell id="A2JY4CL3hP6H36Dgf9bo-31" value="初始化会话" style="whiteSpace=wrap;html=1;rounded=0;" vertex="1" parent="1">
          <mxGeometry x="320" y="1420" width="120" height="60" as="geometry" />
        </mxCell>
        <mxCell id="A2JY4CL3hP6H36Dgf9bo-33" value="&lt;div&gt;db.Statement = &amp;amp;Statement{&lt;/div&gt;&lt;div&gt;&lt;span&gt;		&lt;/span&gt;DB:&amp;nbsp; &amp;nbsp; &amp;nbsp; &amp;nbsp;db,&lt;/div&gt;&lt;div&gt;&lt;span&gt;		&lt;/span&gt;ConnPool: db.ConnPool,&lt;/div&gt;&lt;div&gt;&lt;span&gt;		&lt;/span&gt;Context:&amp;nbsp; context.Background(),&lt;/div&gt;&lt;div&gt;&lt;span&gt;		&lt;/span&gt;Clauses:&amp;nbsp; map[string]clause.Clause{},&lt;/div&gt;&lt;div&gt;&lt;span&gt;	&lt;/span&gt;}&lt;/div&gt;" style="shape=note;whiteSpace=wrap;html=1;backgroundOutline=1;darkOpacity=0.05;rounded=0;align=left;" vertex="1" parent="1">
          <mxGeometry x="540" y="1390" width="180" height="120" as="geometry" />
        </mxCell>
        <mxCell id="A2JY4CL3hP6H36Dgf9bo-38" value="" style="edgeStyle=orthogonalEdgeStyle;rounded=0;orthogonalLoop=1;jettySize=auto;html=1;" edge="1" parent="1" source="A2JY4CL3hP6H36Dgf9bo-35" target="A2JY4CL3hP6H36Dgf9bo-37">
          <mxGeometry relative="1" as="geometry" />
        </mxCell>
        <mxCell id="A2JY4CL3hP6H36Dgf9bo-35" value="连接测试-Ping" style="whiteSpace=wrap;html=1;rounded=0;" vertex="1" parent="1">
          <mxGeometry x="320" y="1560" width="120" height="60" as="geometry" />
        </mxCell>
        <mxCell id="A2JY4CL3hP6H36Dgf9bo-37" value="error处理" style="whiteSpace=wrap;html=1;rounded=0;" vertex="1" parent="1">
          <mxGeometry x="320" y="1700" width="120" height="60" as="geometry" />
        </mxCell>
        <mxCell id="A2JY4CL3hP6H36Dgf9bo-42" value="" style="edgeStyle=orthogonalEdgeStyle;rounded=0;orthogonalLoop=1;jettySize=auto;html=1;" edge="1" parent="1" source="A2JY4CL3hP6H36Dgf9bo-39" target="A2JY4CL3hP6H36Dgf9bo-41">
          <mxGeometry relative="1" as="geometry" />
        </mxCell>
        <mxCell id="A2JY4CL3hP6H36Dgf9bo-39" value="2.Insert" style="whiteSpace=wrap;html=1;rounded=0;" vertex="1" parent="1">
          <mxGeometry x="160" y="1820" width="120" height="60" as="geometry" />
        </mxCell>
        <mxCell id="A2JY4CL3hP6H36Dgf9bo-44" value="" style="edgeStyle=orthogonalEdgeStyle;rounded=0;orthogonalLoop=1;jettySize=auto;html=1;" edge="1" parent="1" source="A2JY4CL3hP6H36Dgf9bo-41" target="A2JY4CL3hP6H36Dgf9bo-43">
          <mxGeometry relative="1" as="geometry" />
        </mxCell>
        <mxCell id="A2JY4CL3hP6H36Dgf9bo-41" value="获取连接" style="whiteSpace=wrap;html=1;rounded=0;" vertex="1" parent="1">
          <mxGeometry x="360" y="1820" width="120" height="60" as="geometry" />
        </mxCell>
        <mxCell id="A2JY4CL3hP6H36Dgf9bo-46" value="" style="edgeStyle=orthogonalEdgeStyle;rounded=0;orthogonalLoop=1;jettySize=auto;html=1;" edge="1" parent="1" source="A2JY4CL3hP6H36Dgf9bo-43" target="A2JY4CL3hP6H36Dgf9bo-45">
          <mxGeometry relative="1" as="geometry" />
        </mxCell>
        <mxCell id="A2JY4CL3hP6H36Dgf9bo-43" value="设置创建对象" style="whiteSpace=wrap;html=1;rounded=0;" vertex="1" parent="1">
          <mxGeometry x="360" y="1960" width="120" height="60" as="geometry" />
        </mxCell>
        <mxCell id="A2JY4CL3hP6H36Dgf9bo-48" value="" style="edgeStyle=orthogonalEdgeStyle;rounded=0;orthogonalLoop=1;jettySize=auto;html=1;" edge="1" parent="1" source="A2JY4CL3hP6H36Dgf9bo-45" target="A2JY4CL3hP6H36Dgf9bo-47">
          <mxGeometry relative="1" as="geometry" />
        </mxCell>
        <mxCell id="A2JY4CL3hP6H36Dgf9bo-45" value="获取所有Create callback" style="whiteSpace=wrap;html=1;rounded=0;" vertex="1" parent="1">
          <mxGeometry x="350" y="2100" width="140" height="60" as="geometry" />
        </mxCell>
        <mxCell id="A2JY4CL3hP6H36Dgf9bo-50" value="" style="edgeStyle=orthogonalEdgeStyle;rounded=0;orthogonalLoop=1;jettySize=auto;html=1;" edge="1" parent="1" source="A2JY4CL3hP6H36Dgf9bo-47" target="A2JY4CL3hP6H36Dgf9bo-49">
          <mxGeometry relative="1" as="geometry" />
        </mxCell>
        <mxCell id="A2JY4CL3hP6H36Dgf9bo-47" value="执行create" style="whiteSpace=wrap;html=1;rounded=0;" vertex="1" parent="1">
          <mxGeometry x="350" y="2240" width="140" height="60" as="geometry" />
        </mxCell>
        <mxCell id="A2JY4CL3hP6H36Dgf9bo-52" value="" style="edgeStyle=orthogonalEdgeStyle;rounded=0;orthogonalLoop=1;jettySize=auto;html=1;entryX=0.5;entryY=0;entryDx=0;entryDy=0;" edge="1" parent="1" source="A2JY4CL3hP6H36Dgf9bo-49" target="A2JY4CL3hP6H36Dgf9bo-53">
          <mxGeometry relative="1" as="geometry">
            <mxPoint x="640" y="2440" as="targetPoint" />
          </mxGeometry>
        </mxCell>
        <mxCell id="A2JY4CL3hP6H36Dgf9bo-58" value="" style="edgeStyle=orthogonalEdgeStyle;rounded=0;orthogonalLoop=1;jettySize=auto;html=1;" edge="1" parent="1" source="A2JY4CL3hP6H36Dgf9bo-49" target="A2JY4CL3hP6H36Dgf9bo-57">
          <mxGeometry relative="1" as="geometry" />
        </mxCell>
        <mxCell id="A2JY4CL3hP6H36Dgf9bo-49" value="解析处理struct" style="whiteSpace=wrap;html=1;rounded=0;" vertex="1" parent="1">
          <mxGeometry x="570" y="2240" width="140" height="60" as="geometry" />
        </mxCell>
        <mxCell id="A2JY4CL3hP6H36Dgf9bo-56" value="" style="edgeStyle=orthogonalEdgeStyle;rounded=0;orthogonalLoop=1;jettySize=auto;html=1;" edge="1" parent="1" source="A2JY4CL3hP6H36Dgf9bo-53" target="A2JY4CL3hP6H36Dgf9bo-55">
          <mxGeometry relative="1" as="geometry" />
        </mxCell>
        <mxCell id="A2JY4CL3hP6H36Dgf9bo-53" value="执行对应callback（已排序），包含钩子函数调用，SQL拼接，事务处理等" style="whiteSpace=wrap;html=1;rounded=0;" vertex="1" parent="1">
          <mxGeometry x="560" y="2360" width="160" height="60" as="geometry" />
        </mxCell>
        <mxCell id="A2JY4CL3hP6H36Dgf9bo-55" value="记录日志，重置Build" style="whiteSpace=wrap;html=1;rounded=0;" vertex="1" parent="1">
          <mxGeometry x="560" y="2500" width="160" height="60" as="geometry" />
        </mxCell>
        <mxCell id="A2JY4CL3hP6H36Dgf9bo-60" value="" style="edgeStyle=orthogonalEdgeStyle;rounded=0;orthogonalLoop=1;jettySize=auto;html=1;" edge="1" parent="1" source="A2JY4CL3hP6H36Dgf9bo-57" target="A2JY4CL3hP6H36Dgf9bo-59">
          <mxGeometry relative="1" as="geometry" />
        </mxCell>
        <mxCell id="A2JY4CL3hP6H36Dgf9bo-63" value="" style="edgeStyle=orthogonalEdgeStyle;rounded=0;orthogonalLoop=1;jettySize=auto;html=1;" edge="1" parent="1" source="A2JY4CL3hP6H36Dgf9bo-57" target="A2JY4CL3hP6H36Dgf9bo-62">
          <mxGeometry relative="1" as="geometry" />
        </mxCell>
        <mxCell id="A2JY4CL3hP6H36Dgf9bo-57" value="获取类型" style="whiteSpace=wrap;html=1;rounded=0;" vertex="1" parent="1">
          <mxGeometry x="790" y="2240" width="140" height="60" as="geometry" />
        </mxCell>
        <mxCell id="A2JY4CL3hP6H36Dgf9bo-59" value="&lt;div&gt;modelType := reflect.ValueOf(dest).Type()&lt;/div&gt;&lt;div&gt;&lt;span&gt;	&lt;/span&gt;for modelType.Kind() == reflect.Slice || modelType.Kind() == reflect.Array || modelType.Kind() == reflect.Ptr {&lt;/div&gt;&lt;div&gt;&lt;span&gt;		&lt;/span&gt;modelType = modelType.Elem()&lt;/div&gt;&lt;div&gt;&lt;span&gt;	&lt;/span&gt;}&lt;/div&gt;" style="shape=note;whiteSpace=wrap;html=1;backgroundOutline=1;darkOpacity=0.05;rounded=0;align=left;" vertex="1" parent="1">
          <mxGeometry x="1044" y="2232.5" width="610" height="75" as="geometry" />
        </mxCell>
        <mxCell id="A2JY4CL3hP6H36Dgf9bo-65" value="" style="edgeStyle=orthogonalEdgeStyle;rounded=0;orthogonalLoop=1;jettySize=auto;html=1;" edge="1" parent="1" source="A2JY4CL3hP6H36Dgf9bo-62" target="A2JY4CL3hP6H36Dgf9bo-64">
          <mxGeometry relative="1" as="geometry" />
        </mxCell>
        <mxCell id="A2JY4CL3hP6H36Dgf9bo-67" value="" style="edgeStyle=orthogonalEdgeStyle;rounded=0;orthogonalLoop=1;jettySize=auto;html=1;" edge="1" parent="1" source="A2JY4CL3hP6H36Dgf9bo-62" target="A2JY4CL3hP6H36Dgf9bo-66">
          <mxGeometry relative="1" as="geometry" />
        </mxCell>
        <mxCell id="A2JY4CL3hP6H36Dgf9bo-62" value="查看缓存如已获取直接返回" style="whiteSpace=wrap;html=1;rounded=0;" vertex="1" parent="1">
          <mxGeometry x="780" y="2370" width="160" height="60" as="geometry" />
        </mxCell>
        <mxCell id="A2JY4CL3hP6H36Dgf9bo-64" value="&lt;div&gt;if v, ok := cacheStore.Load(modelType); ok {&lt;/div&gt;&lt;div&gt;&lt;span&gt;		&lt;/span&gt;s := v.(*Schema)&lt;/div&gt;&lt;div&gt;&lt;span&gt;		&lt;/span&gt;&amp;lt;-s.initialized&lt;/div&gt;&lt;div&gt;&lt;span&gt;		&lt;/span&gt;return s, s.err&lt;/div&gt;&lt;div&gt;&lt;span&gt;	&lt;/span&gt;}&lt;/div&gt;" style="shape=note;whiteSpace=wrap;html=1;backgroundOutline=1;darkOpacity=0.05;rounded=0;align=left;" vertex="1" parent="1">
          <mxGeometry x="1060" y="2350" width="280" height="100" as="geometry" />
        </mxCell>
        <mxCell id="A2JY4CL3hP6H36Dgf9bo-69" value="" style="edgeStyle=orthogonalEdgeStyle;rounded=0;orthogonalLoop=1;jettySize=auto;html=1;" edge="1" parent="1" source="A2JY4CL3hP6H36Dgf9bo-66" target="A2JY4CL3hP6H36Dgf9bo-68">
          <mxGeometry relative="1" as="geometry" />
        </mxCell>
        <mxCell id="A2JY4CL3hP6H36Dgf9bo-66" value="获取table name" style="whiteSpace=wrap;html=1;rounded=0;" vertex="1" parent="1">
          <mxGeometry x="780" y="2480" width="160" height="60" as="geometry" />
        </mxCell>
        <mxCell id="A2JY4CL3hP6H36Dgf9bo-68" value="获取结构体字段和表字段名称对应关系" style="whiteSpace=wrap;html=1;rounded=0;" vertex="1" parent="1">
          <mxGeometry x="750" y="2620" width="220" height="60" as="geometry" />
        </mxCell>
      </root>
    </mxGraphModel>
  </diagram>
</mxfile>
